<svg width="685" height="593" viewBox="0 0 685 593" fill="none" xmlns="http://www.w3.org/2000/svg">
<path d="M21.0816 540.373L0 592.633H0.197393C59.4154 581.212 119.778 572.646 181.089 567.198L213.738 442.502C184.76 449.716 155.941 457.493 128.108 467.599C86.182 482.853 46.7822 504.644 21.0816 540.373Z" fill="#E8EEF4"/>
<path d="M584.322 343.054C545.949 361.087 484.797 378.445 456.175 384.907L503.944 567.235C565.215 572.683 625.577 581.211 684.795 592.67H684.992L584.322 343.054Z" fill="#E8EEF4"/>
<path d="M160.207 355.227C204.778 341.777 246.31 333.512 289.697 323.556C333.281 313.599 376.826 303.268 420.253 292.71C462.613 282.416 509.04 271.746 547.532 251.346C581.918 233.162 607.184 198.522 592.498 160.012C575.719 200.889 532.806 220.237 491.59 233.537C451.835 246.349 410.383 256.342 369.601 265.547C327.636 275.052 285.67 283.468 243.665 292.823C202.173 302.065 159.299 311.721 120.017 327.876C86.658 341.589 49.5481 358.346 56.0621 409.591C81.6047 381.339 124.242 366.123 160.207 355.227Z" fill="#E8EEF4"/>
<path d="M369.096 237.769C413.081 227.595 456.559 215.881 498.755 200.075C516.177 193.542 534.222 185.094 547.522 172.104C560.861 159.076 568.212 137.45 560.239 119.992C549.778 141.017 530.916 154.42 509.799 164.37L444.465 0H355.213L406.469 198.423C361.63 210.099 316.051 219.297 270.822 228.909L329.934 0H240.683L134.436 267.129C114.758 276.065 97.6075 289.881 97.4131 318.64C108.108 309.216 130.703 294.874 184.409 279.894C273.117 255.115 290.5 255.941 369.096 237.769Z" fill="#E8EEF4"/>
<path d="M601.818 296.317C621.716 276.555 632.414 243.831 620.294 217.87C594.199 274.3 524.006 293.273 466.683 308.602C406.162 324.795 344.891 339.184 283.739 353.085C226.337 366.122 167.395 376.83 113.467 400.424C67.0006 420.787 24.2057 450.054 23.2188 514.863C48.9194 479.096 88.3191 457.305 130.245 442.127C176.357 425.408 225.152 414.963 272.882 403.129C300.635 396.253 328.389 389.416 356.064 382.315C404.346 369.954 453.023 358.307 500.398 342.941C534.428 331.933 576.118 321.827 601.818 296.317Z" fill="#E8EEF4"/>
</svg>
